<?xml version="1.0" standalone="no"?>
<!DOCTYPE svg PUBLIC "-//W3C//DTD SVG 20010904//EN"
    "http://www.w3.org/TR/2001/REC-SVG-20010904/DTD/svg10.dtd">
<svg version="1.0" xmlns="http://www.w3.org/2000/svg"
    width="427.000000pt" height="427.000000pt" viewBox="0 0 427.000000 427.000000"
    preserveAspectRatio="xMidYMid meet">

<g transform="translate(0.000000,427.000000) scale(0.100000,-0.100000)"
fill="#000000" stroke="none">
<path d="M0 2135 l0 -2135 2135 0 2135 0 0 2135 0 2135 -2135 0 -2135 0 0
-2135z m891 1039 c110 -33 305 -147 449 -263 101 -81 260 -231 260 -245 0 -15
37 -50 62 -59 24 -8 158 -165 259 -302 132 -179 121 -167 116 -118 -9 79 52
134 108 97 37 -24 46 -47 39 -96 -8 -54 -8 -54 123 122 107 143 246 300 267
300 15 0 58 44 51 52 -3 3 34 44 82 91 297 289 665 490 784 427 42 -23 64
-111 48 -197 -5 -26 -31 -96 -58 -157 -60 -136 -86 -235 -106 -404 -18 -152
-34 -210 -70 -258 -34 -45 -72 -60 -239 -92 -77 -15 -141 -33 -143 -39 -6 -18
47 -50 56 -34 13 21 144 -53 199 -113 87 -96 109 -250 57 -396 -40 -111 -63
-146 -167 -246 -69 -67 -113 -100 -168 -128 -127 -62 -251 -77 -324 -39 -64
33 -196 187 -326 379 -44 65 -80 116 -81 114 -1 -8 -7 -90 -13 -189 -6 -97
-15 -121 -47 -121 -32 0 -42 39 -44 173 -1 70 -4 129 -6 132 -3 2 -25 -26 -49
-62 -145 -216 -304 -403 -367 -429 -54 -23 -158 -17 -249 14 -102 36 -157 74
-269 186 -87 87 -93 95 -125 186 -31 83 -35 107 -35 190 0 87 3 101 33 162 38
78 89 127 178 171 55 27 66 30 75 17 8 -13 12 -12 27 6 9 12 24 24 32 26 15 5
-24 15 -194 48 -211 41 -231 68 -272 380 -22 169 -38 227 -96 352 -50 108 -52
117 -56 215 l-4 102 30 31 c36 36 86 40 173 14z m1465 -505 c-19 -57 -35 -96
-35 -87 -1 9 13 56 29 105 17 48 30 90 30 92 0 2 3 2 6 -1 3 -3 -11 -52 -30
-109z m-491 44 c9 -32 21 -69 27 -83 6 -14 17 -40 25 -58 8 -19 10 -31 4 -28
-13 8 -68 143 -76 189 -11 57 3 44 20 -20z"/>
<path d="M810 3079 c0 -5 5 -7 10 -4 6 3 10 8 10 11 0 2 -4 4 -10 4 -5 0 -10
-5 -10 -11z"/>
<path d="M900 3050 c-13 -9 -13 -11 0 -20 36 -24 120 -38 120 -20 0 26 -93 58
-120 40z"/>
<path d="M3254 3049 c-32 -9 -61 -35 -51 -45 7 -7 107 13 127 26 13 9 13 11 0
20 -18 12 -34 11 -76 -1z"/>
<path d="M775 2981 c-6 -11 9 -23 19 -14 9 9 7 23 -3 23 -6 0 -12 -4 -16 -9z"/>
<path d="M3430 2980 c0 -5 5 -10 10 -10 6 0 10 5 10 10 0 6 -4 10 -10 10 -5 0
-10 -4 -10 -10z"/>
<path d="M863 2969 c-28 -29 33 -70 101 -68 17 0 25 3 19 6 -9 3 -10 10 -3 23
7 13 5 21 -5 30 -22 18 -98 24 -112 9z"/>
<path d="M1124 2969 c-4 -7 1 -18 11 -26 11 -7 17 -13 14 -14 -2 0 -14 -2 -27
-3 -34 -4 -49 -23 -36 -44 25 -39 63 -15 79 50 5 20 2 29 -14 37 -14 8 -22 8
-27 0z"/>
<path d="M3262 2969 c-14 -5 -22 -16 -20 -26 1 -10 -1 -24 -5 -30 -11 -17 45
-16 93 1 37 13 51 43 28 57 -17 11 -67 10 -96 -2z"/>
<path d="M3067 2963 c-12 -11 -8 -23 7 -23 7 0 19 7 26 15 10 12 9 15 -7 15
-11 0 -23 -3 -26 -7z"/>
<path d="M1244 2925 c22 -17 56 -20 56 -6 0 11 -25 21 -53 21 -22 -1 -22 -1
-3 -15z"/>
<path d="M2943 2933 c-7 -2 -13 -9 -13 -14 0 -14 34 -11 56 6 18 14 18 14 -6
14 -14 0 -31 -3 -37 -6z"/>
<path d="M3092 2929 c-27 -10 -29 -45 -3 -58 14 -8 23 -5 40 13 11 12 21 27
21 33 0 15 -32 22 -58 12z"/>
<path d="M800 2870 c0 -5 5 -10 10 -10 6 0 10 5 10 10 0 6 -4 10 -10 10 -5 0
-10 -4 -10 -10z"/>
<path d="M3410 2870 c0 -5 5 -10 10 -10 6 0 10 5 10 10 0 6 -4 10 -10 10 -5 0
-10 -4 -10 -10z"/>
<path d="M952 2858 c-20 -20 -14 -56 13 -74 29 -19 50 -14 57 14 12 46 -39 91
-70 60z"/>
<path d="M3212 2858 c-14 -14 -16 -57 -3 -76 12 -20 41 -11 65 21 16 21 18 32
10 45 -14 21 -55 27 -72 10z"/>
<path d="M875 2850 c-3 -6 1 -7 9 -4 18 7 21 14 7 14 -6 0 -13 -4 -16 -10z"/>
<path d="M1310 2791 c0 -20 32 -37 50 -26 16 10 -8 45 -30 45 -13 0 -20 -7
-20 -19z"/>
<path d="M2870 2795 c-6 -8 -9 -19 -5 -25 9 -14 45 6 45 25 0 19 -24 19 -40 0z"/>
<path d="M795 2790 c3 -5 8 -10 11 -10 2 0 4 5 4 10 0 6 -5 10 -11 10 -5 0 -7
-4 -4 -10z"/>
<path d="M1400 2796 c0 -2 7 -9 15 -16 13 -11 14 -10 9 4 -5 14 -24 23 -24 12z"/>
<path d="M1440 2796 c0 -2 7 -9 15 -16 13 -11 14 -10 9 4 -5 14 -24 23 -24 12z"/>
<path d="M2773 2793 c-7 -2 -13 -9 -13 -15 0 -14 43 -6 48 10 4 12 -12 15 -35
5z"/>
<path d="M1213 2773 c-20 -7 -15 -19 12 -31 40 -18 58 -16 46 7 -11 20 -38 31
-58 24z"/>
<path d="M2974 2769 c-21 -7 -37 -32 -27 -42 7 -8 60 12 73 28 13 16 -16 26
-46 14z"/>
<path d="M882 2723 c4 -22 48 -31 48 -10 0 14 -20 27 -42 27 -5 0 -8 -8 -6
-17z"/>
<path d="M3300 2719 c-10 -18 -9 -20 12 -17 12 2 24 11 26 21 5 24 -25 22 -38
-4z"/>
<path d="M1072 2694 c-28 -19 -28 -47 -1 -85 16 -23 28 -29 59 -29 21 0 42 -5
46 -11 5 -8 8 -8 13 0 7 10 36 5 115 -19 16 -5 33 -7 37 -4 23 14 -73 124
-124 143 -51 19 -122 21 -145 5z"/>
<path d="M3065 2700 c-68 -15 -143 -69 -171 -122 -19 -37 -18 -41 14 -33 15 4
50 9 77 12 28 3 58 9 67 14 9 5 28 9 43 9 52 0 97 79 62 108 -18 15 -57 20
-92 12z"/>
<path d="M2724 2620 c-22 -17 -73 -63 -114 -103 -41 -40 -89 -79 -107 -89 -38
-20 -109 -107 -169 -208 -66 -112 -58 -110 183 55 157 108 316 268 338 343 6
19 3 22 -24 22 -16 0 -33 -4 -36 -10 -10 -16 -25 -12 -19 5 9 23 -10 18 -52
-15z"/>
<path d="M1380 2617 c0 -51 99 -169 221 -262 30 -24 111 -82 179 -129 110 -77
150 -98 150 -81 0 14 -47 96 -86 150 -60 84 -91 115 -157 159 -31 21 -66 50
-77 65 -11 14 -23 29 -27 33 -72 64 -103 88 -117 88 -10 0 -14 -4 -11 -10 3
-5 2 -10 -4 -10 -5 0 -13 5 -16 10 -3 6 -17 10 -31 10 -18 0 -24 -5 -24 -23z"/>
<path d="M867 2623 c-4 -3 -7 -11 -7 -17 0 -6 5 -5 12 2 6 6 9 14 7 17 -3 3
-9 2 -12 -2z"/>
<path d="M950 2620 c0 -5 5 -10 11 -10 5 0 7 5 4 10 -3 6 -8 10 -11 10 -2 0
-4 -4 -4 -10z"/>
<path d="M3267 2623 c-4 -3 -7 -11 -7 -17 0 -6 5 -5 12 2 6 6 9 14 7 17 -3 3
-9 2 -12 -2z"/>
<path d="M936 2532 c-3 -6 -1 -14 5 -17 15 -10 25 3 12 16 -7 7 -13 7 -17 1z"/>
<path d="M1046 2514 c-19 -18 -20 -51 -5 -91 14 -38 25 -43 102 -43 74 0 90
14 27 25 -66 11 -54 22 31 29 54 5 79 11 76 19 -2 7 -14 14 -28 15 -13 2 -30
9 -37 15 -17 14 -111 47 -133 47 -10 0 -25 -7 -33 -16z"/>
<path d="M3093 2518 c-13 -6 -23 -15 -23 -20 0 -4 -13 -8 -30 -8 -16 0 -30 -4
-30 -10 0 -5 -13 -10 -29 -10 -45 0 -47 -18 -4 -25 21 -4 49 -12 62 -18 24
-12 23 -12 -14 -23 -52 -14 -25 -24 66 -24 62 0 70 2 85 25 19 29 21 89 4 110
-14 17 -55 18 -87 3z"/>
<path d="M3270 2520 c0 -5 5 -10 10 -10 6 0 10 5 10 10 0 6 -4 10 -10 10 -5 0
-10 -4 -10 -10z"/>
<path d="M1307 2467 c4 -6 7 -23 7 -37 1 -20 7 -26 29 -28 23 -3 26 -6 16 -18
-14 -17 -9 -17 26 -4 18 7 31 6 45 -2 13 -8 25 -9 41 -2 22 10 21 12 -33 52
-37 27 -70 43 -97 46 -30 4 -40 2 -34 -7z"/>
<path d="M2804 2440 c-27 -22 -49 -46 -49 -53 0 -14 84 -11 100 4 5 5 18 9 30
9 30 0 49 15 39 31 -5 8 -7 22 -5 32 2 16 -1 17 -18 7 -14 -7 -21 -7 -21 0 0
20 -29 9 -76 -30z"/>
<path d="M1045 2324 c-7 -8 -17 -24 -20 -35 -8 -25 12 -94 32 -110 7 -6 72
-15 145 -20 73 -4 162 -15 196 -24 111 -27 462 -48 462 -27 0 11 -149 112
-210 142 -25 13 -57 31 -72 42 -15 11 -36 19 -45 18 -10 0 -28 -1 -40 -1 -13
0 -23 -4 -23 -8 0 -8 -49 -17 -135 -27 -16 -1 -64 8 -105 21 -113 37 -168 46
-185 29z"/>
<path d="M3021 2304 c-41 -14 -82 -29 -93 -35 -11 -6 -25 -6 -35 0 -10 5 -42
11 -72 14 -29 3 -56 9 -60 13 -3 5 -23 10 -44 12 -40 2 -43 1 -235 -116 -41
-25 -86 -56 -100 -69 l-27 -24 161 5 c88 3 212 15 275 25 63 11 170 25 238 31
68 5 130 14 138 19 9 4 22 25 29 46 11 32 11 44 -1 72 -13 30 -18 33 -57 33
-24 0 -76 -12 -117 -26z"/>
<path d="M940 2189 c0 -5 5 -7 10 -4 6 3 10 8 10 11 0 2 -4 4 -10 4 -5 0 -10
-5 -10 -11z"/>
<path d="M3270 2190 c0 -5 5 -10 10 -10 6 0 10 5 10 10 0 6 -4 10 -10 10 -5 0
-10 -4 -10 -10z"/>
<path d="M1389 2009 c-12 -8 -12 -11 1 -19 22 -14 73 -13 68 2 -6 16 -52 28
-69 17z"/>
<path d="M2769 2000 l-24 -19 53 -1 c45 0 52 2 52 20 0 27 -49 27 -81 0z"/>
<path d="M1527 1983 c-28 -7 -15 -26 24 -36 38 -10 264 -5 275 6 13 12 1 15
-116 22 -63 4 -126 8 -140 10 -14 1 -33 0 -43 -2z"/>
<path d="M2629 1986 c-5 -5 -136 -15 -199 -16 -32 0 -41 -3 -33 -11 7 -7 66
-13 145 -16 106 -4 137 -2 152 10 10 7 16 19 12 25 -7 11 -67 17 -77 8z"/>
<path d="M1154 1946 c-3 -8 -4 -22 -2 -31 3 -14 5 -14 25 0 13 9 20 22 17 30
-8 19 -33 19 -40 1z"/>
<path d="M3034 1945 c-7 -18 12 -45 32 -45 17 0 18 14 4 41 -13 23 -28 25 -36
4z"/>
<path d="M1313 1939 c-28 -8 -33 -14 -33 -41 l0 -31 103 5 c56 2 111 9 121 15
18 10 18 11 -5 26 -26 17 -101 37 -134 36 -11 -1 -35 -5 -52 -10z"/>
<path d="M2791 1939 c-59 -8 -93 -31 -74 -50 15 -15 204 -25 227 -12 16 9 16
11 -1 32 -23 28 -79 39 -152 30z"/>
<path d="M1690 1895 c-96 -26 -128 -39 -140 -56 -8 -13 -43 -51 -77 -87 -50
-50 -63 -70 -63 -94 l0 -31 60 6 c33 4 75 13 94 21 45 19 271 165 319 207 l39
33 -24 18 c-32 24 -63 22 -208 -17z"/>
<path d="M2324 1909 c-18 -20 -18 -21 6 -40 49 -38 276 -187 317 -208 24 -12
70 -24 103 -28 l60 -6 0 42 c0 22 -4 41 -10 41 -14 0 -120 110 -120 125 0 19
-132 65 -244 84 -81 15 -90 14 -112 -10z"/>
<path d="M1135 1850 c-3 -5 1 -10 10 -10 9 0 13 5 10 10 -3 6 -8 10 -10 10 -2
0 -7 -4 -10 -10z"/>
<path d="M3070 1845 c0 -8 5 -15 10 -15 6 0 10 7 10 15 0 8 -4 15 -10 15 -5 0
-10 -7 -10 -15z"/>
<path d="M1285 1812 l-91 -15 -16 -38 c-16 -37 -16 -39 2 -39 55 0 246 55 272
78 41 35 -12 40 -167 14z"/>
<path d="M2760 1817 c0 -8 19 -24 43 -36 44 -21 243 -68 252 -59 3 3 -2 21
-10 41 -16 38 -16 38 -125 52 -128 17 -160 17 -160 2z"/>
<path d="M1885 1808 c-83 -48 -210 -171 -245 -239 -10 -19 -26 -41 -34 -48 -9
-8 -16 -21 -16 -30 0 -9 -24 -39 -54 -67 -50 -46 -54 -53 -50 -85 3 -18 10
-38 16 -44 11 -11 17 -4 68 86 42 74 99 141 100 117 0 -9 -20 -42 -44 -75 -61
-81 -101 -162 -87 -176 19 -19 43 4 76 69 51 102 85 156 157 247 38 49 89 117
113 153 59 86 59 126 0 92z"/>
<path d="M2300 1796 c0 -19 87 -148 158 -236 34 -41 71 -93 81 -116 11 -22 26
-46 35 -53 9 -8 16 -20 16 -28 0 -18 47 -110 60 -118 18 -11 41 16 34 39 -3
12 -32 59 -63 106 -64 97 -77 121 -56 114 13 -6 81 -99 104 -145 7 -14 24 -39
37 -55 l25 -29 -3 25 c-1 14 4 36 11 49 12 22 11 26 -15 45 -56 41 -94 78 -94
93 0 8 -16 42 -36 76 -33 57 -108 135 -208 214 -42 34 -86 43 -86 19z"/>
<path d="M1062 1761 c2 -7 7 -12 11 -12 12 1 9 15 -3 20 -7 2 -11 -2 -8 -8z"/>
<path d="M3140 1755 c0 -8 5 -15 10 -15 6 0 10 7 10 15 0 8 -4 15 -10 15 -5 0
-10 -7 -10 -15z"/>
<path d="M2271 1712 c-1 -44 33 -140 114 -314 80 -176 100 -202 151 -194 46 8
74 23 74 41 0 15 -131 212 -243 365 -34 47 -70 97 -79 110 l-17 25 0 -33z"/>
<path d="M1907 1678 c-51 -63 -204 -284 -243 -351 -35 -60 -44 -105 -21 -112
6 -2 33 -6 58 -10 l46 -6 53 113 c91 194 112 241 136 312 38 109 29 125 -29
54z"/>
<path d="M2928 1683 c-30 -7 -21 -20 58 -78 72 -54 77 -56 99 -41 55 36 39 89
-32 104 -69 15 -106 19 -125 15z"/>
<path d="M1165 1673 c-54 -13 -73 -74 -34 -109 23 -21 18 -23 123 50 75 52 74
66 -6 65 -35 -1 -72 -4 -83 -6z"/>
<path d="M1958 1588 c-49 -86 -138 -265 -138 -279 0 -24 44 28 117 138 69 105
103 168 103 193 0 5 -10 10 -23 10 -18 0 -31 -15 -59 -62z"/>
<path d="M2195 1639 c-13 -20 6 -60 84 -176 71 -106 131 -179 131 -159 0 9
-133 270 -160 314 -20 32 -43 41 -55 21z"/>
<path d="M1030 1585 c0 -8 5 -15 10 -15 6 0 10 7 10 15 0 8 -4 15 -10 15 -5 0
-10 -7 -10 -15z"/>
<path d="M1268 1556 c-56 -15 -78 -31 -78 -58 0 -32 18 -55 51 -67 27 -9 33
-8 54 13 30 30 68 104 60 116 -8 13 -29 12 -87 -4z"/>
<path d="M1452 1553 c-35 -12 -52 -28 -92 -86 -55 -77 -58 -88 -33 -117 20
-23 75 -27 90 -7 10 11 103 214 103 223 0 7 -24 3 -68 -13z"/>
<path d="M2710 1560 c0 -5 11 -31 25 -57 14 -27 35 -75 48 -108 22 -59 23 -60
61 -59 23 1 46 9 58 22 24 23 19 36 -46 121 -47 62 -146 117 -146 81z"/>
<path d="M2881 1556 c-12 -14 25 -102 51 -124 35 -28 113 25 106 72 -5 37
-134 79 -157 52z"/>
<path d="M2770 1239 c0 -5 5 -7 10 -4 6 3 10 8 10 11 0 2 -4 4 -10 4 -5 0 -10
-5 -10 -11z"/>
<path d="M1360 1230 c0 -5 5 -10 10 -10 6 0 10 5 10 10 0 6 -4 10 -10 10 -5 0
-10 -4 -10 -10z"/>
<path d="M2850 1229 c0 -5 5 -7 10 -4 6 3 10 8 10 11 0 2 -4 4 -10 4 -5 0 -10
-5 -10 -11z"/>
<path d="M1500 1181 c0 -5 7 -11 15 -15 9 -3 15 0 15 9 0 8 -7 15 -15 15 -8 0
-15 -4 -15 -9z"/>
<path d="M2697 1184 c-4 -4 -4 -10 -1 -15 6 -10 34 0 34 12 0 10 -24 12 -33 3z"/>
<path d="M1580 1165 c0 -8 7 -15 15 -15 8 0 15 7 15 15 0 8 -7 15 -15 15 -8 0
-15 -7 -15 -15z"/>
<path d="M2617 1174 c-9 -10 2 -24 19 -24 8 0 14 7 14 15 0 15 -21 21 -33 9z"/>
<path d="M1650 1150 c0 -5 6 -10 14 -10 8 0 18 5 21 10 3 6 -3 10 -14 10 -12
0 -21 -4 -21 -10z"/>
<path d="M2540 1150 c0 -5 7 -10 15 -10 8 0 15 5 15 10 0 6 -7 10 -15 10 -8 0
-15 -4 -15 -10z"/>
<path d="M1410 1134 c0 -8 5 -12 10 -9 6 4 8 11 5 16 -9 14 -15 11 -15 -7z"/>
<path d="M1540 1080 c0 -5 5 -10 10 -10 6 0 10 5 10 10 0 6 -4 10 -10 10 -5 0
-10 -4 -10 -10z"/>
<path d="M2660 1080 c0 -5 5 -10 10 -10 6 0 10 5 10 10 0 6 -4 10 -10 10 -5 0
-10 -4 -10 -10z"/>
</g>
</svg>
