<?xml version="1.0" standalone="no"?>
<!DOCTYPE svg PUBLIC "-//W3C//DTD SVG 20010904//EN"
 "http://www.w3.org/TR/2001/REC-SVG-20010904/DTD/svg10.dtd">
<svg version="1.0" xmlns="http://www.w3.org/2000/svg"
 width="320.000000pt" height="320.000000pt" viewBox="0 0 320.000000 320.000000"
 preserveAspectRatio="xMidYMid meet">

<g transform="translate(0.000000,320.000000) scale(0.100000,-0.100000)"
fill="#000000" stroke="none">
<path d="M534 2369 c-15 -17 -19 -36 -19 -93 0 -61 5 -81 36 -146 53 -108 68
-159 80 -268 21 -194 40 -246 99 -277 18 -9 81 -25 142 -35 102 -18 145 -30
105 -30 -9 0 -16 -5 -14 -12 1 -6 -6 -14 -17 -16 -11 -2 -16 0 -12 7 9 15 -36
-2 -91 -35 -113 -66 -155 -217 -98 -356 14 -34 25 -66 25 -71 0 -15 116 -132
170 -172 88 -65 233 -95 298 -61 50 26 157 152 257 304 26 39 50 72 52 72 2 0
3 -48 2 -106 -2 -86 1 -108 15 -122 13 -13 20 -14 34 -6 14 9 18 31 22 123 l5
113 55 -83 c98 -147 202 -268 254 -296 87 -46 274 18 370 126 17 19 43 46 58
60 16 15 40 61 59 111 26 72 30 95 26 151 -6 89 -36 151 -96 194 -46 34 -126
71 -116 54 11 -17 -21 -9 -37 10 -19 23 -31 18 128 46 50 9 106 25 123 36 42
25 70 90 77 176 12 161 39 265 96 374 42 80 49 167 19 217 -18 28 -26 32 -66
32 -92 0 -217 -63 -400 -200 -81 -61 -243 -215 -205 -195 8 5 4 -4 -9 -18 -13
-15 -27 -24 -32 -22 -11 7 -160 -163 -226 -260 -31 -44 -60 -84 -64 -89 -9
-10 -5 36 4 51 10 16 -32 63 -56 63 -28 0 -41 -9 -56 -39 -9 -15 -9 -27 -3
-33 5 -5 7 -19 5 -29 -5 -17 -10 -13 -31 23 -55 92 -246 323 -261 313 -5 -2
-19 7 -32 22 -13 14 -17 23 -9 19 31 -16 -148 152 -222 207 -215 161 -390 226
-444 166z m86 -59 c0 -5 -5 -10 -11 -10 -5 0 -7 5 -4 10 3 6 8 10 11 10 2 0 4
-4 4 -10z m1865 -46 c-16 -7 -45 -13 -63 -14 -28 0 -31 2 -20 13 23 23 71 35
93 24 19 -10 18 -11 -10 -23z m-1730 6 c18 -19 17 -20 -7 -20 -35 0 -89 20
-82 31 10 17 70 10 89 -11z m-155 -40 c0 -5 -4 -10 -10 -10 -5 0 -10 5 -10 10
0 6 5 10 10 10 6 0 10 -4 10 -10z m140 -26 c0 -8 -6 -14 -12 -15 -7 0 -4 -4 7
-9 18 -8 17 -9 -6 -9 -14 -1 -40 4 -58 10 -37 13 -43 46 -8 51 31 5 77 -11 77
-28z m1790 5 c0 -12 -12 -21 -37 -28 -45 -13 -84 -14 -66 -3 8 5 9 13 3 22 -7
12 -2 18 22 26 43 14 78 7 78 -17z m60 27 c0 -3 -4 -8 -10 -11 -5 -3 -10 -1
-10 4 0 6 5 11 10 11 6 0 10 -2 10 -4z m-1720 -16 c12 -8 12 -13 -3 -44 -9
-20 -20 -36 -24 -36 -19 1 -35 19 -31 36 3 14 11 18 33 16 25 -2 27 0 13 8
-18 11 -25 30 -10 30 4 0 14 -4 22 -10z m1460 0 c0 -13 -28 -25 -38 -16 -3 4
0 11 8 16 20 13 30 12 30 0z m-1357 -29 c10 -10 6 -12 -17 -9 -16 2 -31 8 -33
14 -5 15 34 11 50 -5z m1267 -1 c-20 -13 -57 -13 -44 -1 10 10 46 19 54 14 2
-2 -2 -8 -10 -13z m125 0 c3 -5 -4 -19 -15 -30 -17 -17 -24 -19 -36 -9 -17 14
-18 36 -1 42 21 9 46 7 52 -3z m-1750 -40 c3 -5 1 -10 -4 -10 -6 0 -11 5 -11
10 0 6 2 10 4 10 3 0 8 -4 11 -10z m1955 0 c0 -5 -5 -10 -11 -10 -5 0 -7 5 -4
10 3 6 8 10 11 10 2 0 4 -4 4 -10z m-1895 -10 c-3 -5 -12 -10 -18 -10 -7 0 -6
4 3 10 19 12 23 12 15 0z m83 1 c16 -10 12 -63 -4 -68 -6 -2 -21 5 -34 15 -40
32 -5 81 38 53z m1706 -6 c11 -30 -29 -75 -54 -60 -11 7 -14 58 -3 68 12 13
51 7 57 -8z m-1440 -51 c4 -10 -2 -14 -19 -14 -23 0 -33 18 -19 33 9 9 32 -3
38 -19z m1161 5 c0 -8 -10 -15 -23 -17 -21 -3 -22 -1 -12 18 12 23 35 22 35
-1z m-1575 1 c0 -5 -2 -10 -4 -10 -3 0 -8 5 -11 10 -3 6 -1 10 4 10 6 0 11 -4
11 -10z m461 -7 c13 -16 12 -17 -3 -4 -17 13 -22 21 -14 21 2 0 10 -8 17 -17z
m30 0 c13 -16 12 -17 -3 -4 -17 13 -22 21 -14 21 2 0 10 -8 17 -17z m1008 1
c-6 -7 -19 -12 -29 -11 -25 2 -8 23 19 23 14 0 17 -4 10 -12z m-1159 -19 c7
-9 11 -18 8 -21 -8 -7 -58 14 -58 26 0 15 36 12 50 -5z m1320 5 c0 -9 -40 -30
-56 -30 -10 0 -3 29 9 33 22 9 47 7 47 -3z m-1570 -41 c0 -5 -9 -9 -20 -9 -19
0 -27 20 -13 33 7 8 33 -11 33 -24z m1806 2 c-8 -13 -36 -15 -36 -3 0 4 5 13
12 20 14 14 34 0 24 -17z m-1601 -13 c24 -3 105 -81 105 -103 0 -16 -15 -21
-24 -7 -2 4 -19 9 -37 10 -18 1 -39 8 -48 15 -12 9 -13 9 -7 0 4 -7 3 -13 -3
-13 -5 0 -12 4 -15 8 -3 5 -18 7 -33 5 -23 -3 -31 2 -46 28 -17 30 -17 33 0
51 14 15 25 18 53 14 19 -4 44 -7 55 -8z m1469 -11 c16 -26 -12 -72 -44 -72
-14 0 -31 -4 -39 -9 -8 -5 -32 -10 -55 -11 -23 -1 -49 -6 -58 -10 -29 -12 -21
18 15 58 52 59 156 84 181 44z m-295 -38 c-10 -6 -10 -9 -2 -9 6 0 15 5 18 10
3 6 17 10 30 10 22 0 23 -2 12 -32 -16 -43 -147 -180 -205 -214 -26 -15 -80
-51 -119 -81 -102 -74 -115 -72 -62 13 54 86 109 152 132 158 24 6 97 71 97
87 0 5 4 9 9 9 5 0 25 16 45 36 20 20 40 32 47 28 8 -5 7 -9 -2 -15z m-1004 1
c3 -5 12 -10 18 -10 7 0 6 4 -3 10 -12 8 -11 10 7 10 13 0 31 -12 45 -30 12
-16 28 -30 35 -30 7 0 13 -4 13 -9 0 -16 73 -81 97 -87 23 -6 94 -93 140 -171
25 -44 25 -66 -2 -48 -7 6 -64 44 -127 87 -155 105 -247 196 -263 261 -6 23
-4 27 13 27 12 0 24 -4 27 -10z m-415 -10 c0 -5 -5 -10 -11 -10 -5 0 -7 5 -4
10 3 6 8 10 11 10 2 0 4 -4 4 -10z m65 0 c3 -5 1 -10 -4 -10 -6 0 -11 5 -11
10 0 6 2 10 4 10 3 0 8 -4 11 -10z m1735 0 c0 -5 -5 -10 -11 -10 -5 0 -7 5 -4
10 3 6 8 10 11 10 2 0 4 -4 4 -10z m-1740 -70 c0 -5 -4 -10 -10 -10 -5 0 -10
5 -10 10 0 6 5 10 10 10 6 0 10 -4 10 -10z m137 -8 c12 -7 29 -12 37 -12 9 0
16 -5 16 -11 0 -6 8 -9 18 -7 10 3 23 -1 30 -9 10 -10 9 -13 -5 -14 -24 -2
-46 -6 -58 -9 -5 -1 -23 -2 -40 -1 -25 1 -27 -1 -10 -8 11 -5 23 -7 28 -4 4 2
7 0 7 -6 0 -6 7 -8 15 -5 8 4 15 1 15 -5 0 -7 -22 -11 -57 -11 -53 0 -59 2
-70 27 -33 71 7 111 74 75z m1536 -15 c6 -19 5 -36 -5 -57 -12 -28 -16 -30
-68 -30 -30 0 -62 5 -70 10 -11 7 -7 10 18 10 17 0 32 5 32 11 0 5 -4 8 -9 4
-5 -3 -13 -1 -16 5 -4 6 -15 8 -25 5 -10 -3 -21 -1 -25 5 -3 6 -12 7 -18 3 -8
-4 -8 -1 1 9 7 9 21 14 32 11 12 -3 20 0 20 7 0 7 8 9 20 5 11 -3 20 -2 20 3
0 12 48 32 69 29 8 -1 18 -14 24 -30z m77 23 c0 -5 -4 -10 -10 -10 -5 0 -10 5
-10 10 0 6 5 10 10 10 6 0 10 -4 10 -10z m-1421 -47 c3 -5 21 -20 40 -33 34
-23 34 -24 11 -32 -16 -6 -26 -5 -31 4 -6 9 -13 9 -35 -1 -25 -11 -26 -11 -13
5 13 16 12 17 -8 12 -23 -6 -36 11 -27 36 3 8 -2 16 -13 19 -10 2 2 3 26 1 24
-1 47 -7 50 -11z m1111 4 c0 -5 8 -3 17 4 15 13 16 12 11 -8 -4 -13 -2 -23 3
-23 5 0 9 -4 9 -10 0 -5 -13 -10 -30 -10 -16 0 -30 -5 -30 -11 0 -6 -7 -8 -16
-5 -9 4 -23 1 -31 -5 -11 -9 -17 -9 -26 0 -9 10 -7 16 13 29 13 10 30 24 38
33 15 17 42 21 42 6z m-1227 -132 c31 -12 57 -19 57 -15 0 4 12 6 27 4 15 -1
33 2 40 8 7 6 20 8 28 4 8 -3 15 -1 15 5 0 6 7 9 15 5 8 -3 15 -1 15 3 0 12
43 1 55 -14 6 -7 34 -23 63 -35 28 -12 52 -25 52 -29 0 -3 23 -19 50 -36 28
-16 50 -33 50 -37 0 -13 -262 -1 -325 15 -80 21 -139 29 -203 27 -66 -1 -92 6
-92 29 0 9 -5 22 -10 27 -7 7 -7 21 1 43 11 32 12 33 58 26 25 -4 72 -17 104
-30z m1466 3 c8 -21 8 -35 1 -42 -5 -5 -10 -18 -10 -28 0 -21 -17 -25 -140
-32 -52 -3 -120 -13 -150 -21 -57 -16 -330 -30 -330 -17 0 8 139 99 166 108
11 4 28 15 39 24 23 20 65 32 65 19 0 -4 7 -6 15 -3 8 4 15 2 15 -4 0 -5 10
-10 23 -11 41 -1 77 -7 83 -14 4 -3 16 -1 28 5 34 18 129 47 158 47 21 1 28
-6 37 -31z m-1679 -72 c0 -3 -4 -8 -10 -11 -5 -3 -10 -1 -10 4 0 6 5 11 10 11
6 0 10 -2 10 -4z m1750 -6 c0 -5 -4 -10 -10 -10 -5 0 -10 5 -10 10 0 6 5 10
10 10 6 0 10 -4 10 -10z m-330 -146 c0 -10 -12 -14 -41 -14 -35 0 -40 2 -29
14 11 15 48 25 63 18 4 -2 7 -10 7 -18z m-1042 -2 c3 -10 -5 -13 -29 -10 -18
2 -34 9 -37 16 -3 10 5 13 29 10 18 -2 34 -9 37 -16z m220 -15 c34 -1 62 -4
62 -8 0 -18 -198 -24 -235 -7 -39 18 -10 30 55 23 30 -3 83 -7 118 -8z m717 4
c9 -16 -30 -31 -78 -31 -64 0 -167 12 -167 19 0 3 39 8 87 9 48 2 89 5 92 7 8
9 60 5 66 -4z m-1138 -28 c3 -7 -5 -17 -16 -23 -18 -9 -21 -8 -21 8 0 32 28
43 37 15z m1411 -11 c4 -23 -4 -27 -27 -13 -17 11 -7 45 12 39 6 -3 13 -14 15
-26z m-1209 4 c72 -26 45 -43 -74 -47 -49 -2 -70 1 -69 9 1 7 2 18 3 26 2 26
82 33 140 12z m1108 -12 c22 -30 15 -34 -59 -34 -84 0 -120 8 -115 24 12 36
149 44 174 10z m-788 0 l22 -16 -22 -24 c-12 -13 -26 -24 -30 -24 -5 0 -55
-31 -111 -70 -89 -59 -112 -70 -161 -76 l-57 -7 0 32 c0 17 4 31 8 31 14 0 80
67 87 89 6 19 29 32 70 37 11 1 20 3 20 4 0 1 7 3 15 5 8 3 40 11 70 19 30 7
57 14 60 15 3 1 16 -6 29 -15z m418 1 c21 -4 49 -10 63 -15 14 -4 44 -13 68
-19 25 -7 42 -18 42 -27 0 -15 77 -94 92 -94 4 0 8 -14 8 -31 l0 -32 -56 6
c-49 5 -71 16 -184 91 -71 48 -131 90 -134 94 -11 18 26 44 51 37 6 -2 29 -7
50 -10z m-967 -49 c0 -3 -4 -8 -10 -11 -5 -3 -10 -1 -10 4 0 6 5 11 10 11 6 0
10 -2 10 -4z m1450 -6 c0 -5 -4 -10 -10 -10 -5 0 -10 5 -10 10 0 6 5 10 10 10
6 0 10 -4 10 -10z m-155 -20 c-3 -4 1 -8 8 -7 74 2 107 -4 107 -21 0 -10 5
-23 12 -30 18 -18 6 -22 -33 -12 -19 4 -60 14 -91 20 -57 11 -118 47 -100 59
15 9 103 1 97 -9z m-1065 1 c0 -19 -35 -35 -128 -57 -98 -23 -115 -23 -94 -2
7 7 12 21 12 31 0 15 5 18 25 15 14 -3 25 -1 25 3 0 5 6 6 13 3 7 -2 24 0 38
5 30 12 109 14 109 2z m350 -15 c0 -15 -64 -107 -131 -187 -25 -32 -53 -71
-60 -88 -8 -17 -17 -31 -20 -31 -4 0 -10 -11 -13 -25 -11 -43 -46 -94 -62 -88
-8 3 -14 9 -14 14 0 16 41 91 62 113 23 24 52 76 42 76 -14 0 -65 -68 -89
-117 -13 -29 -29 -53 -34 -53 -12 0 -25 71 -14 79 4 4 25 20 46 35 23 17 36
34 33 42 -3 8 -2 14 3 14 4 0 17 19 29 43 23 45 78 103 156 160 47 36 66 39
66 13z m349 -23 c65 -53 141 -126 136 -132 -3 -2 6 -19 20 -37 14 -18 20 -34
14 -36 -5 -2 10 -22 35 -44 25 -23 48 -39 51 -36 3 3 5 -4 5 -16 0 -12 -5 -22
-11 -22 -6 0 -8 -9 -4 -20 13 -42 -16 -17 -44 38 -29 55 -72 112 -85 112 -9 0
18 -51 41 -75 10 -11 29 -40 42 -64 21 -38 22 -45 8 -58 -13 -14 -18 -10 -41
29 -14 25 -26 52 -26 61 0 10 -4 17 -9 17 -5 0 -16 17 -25 38 -8 20 -33 57
-55 81 -59 65 -134 178 -126 190 11 18 26 13 74 -26z m-985 -14 c-3 -5 -10 -7
-15 -3 -5 3 -7 10 -3 15 3 5 10 7 15 3 5 -3 7 -10 3 -15z m1552 -6 c-10 -10
-19 5 -10 18 6 11 8 11 12 0 2 -7 1 -15 -2 -18z m-912 -86 c-9 -28 -45 -112
-80 -185 l-64 -133 -41 3 c-84 6 -78 19 136 321 65 92 81 90 49 -6z m359 -65
c61 -80 147 -209 147 -221 0 -15 -35 -31 -69 -31 -29 0 -34 6 -76 89 -67 135
-115 256 -115 293 l0 33 34 -53 c19 -29 55 -78 79 -110z m515 84 c9 -9 12 -24
8 -39 -7 -31 -45 -46 -60 -25 -6 8 -30 27 -53 41 -65 41 -57 55 24 45 37 -4
73 -14 81 -22z m-1345 9 c-3 -9 -18 -22 -34 -30 -15 -8 -40 -26 -54 -39 -25
-23 -28 -24 -46 -8 -10 9 -19 26 -19 38 0 37 29 51 112 53 39 1 46 -2 41 -14z
m536 -11 c18 12 13 -24 -10 -63 -58 -97 -115 -180 -132 -191 -24 -15 -25 -16
53 137 36 70 68 124 71 119 4 -5 12 -5 18 -2z m224 -125 c38 -72 67 -133 64
-135 -13 -14 -167 211 -167 244 0 9 14 19 30 21 3 0 36 -58 73 -130z m-953 75
c0 -8 -4 -12 -10 -9 -5 3 -10 10 -10 16 0 5 5 9 10 9 6 0 10 -7 10 -16z m1597
-6 c-3 -8 -6 -5 -6 6 -1 11 2 17 5 13 3 -3 4 -12 1 -19z m-1367 -15 c0 -3 -12
-27 -27 -54 -24 -42 -31 -47 -53 -42 -50 11 -67 63 -27 84 42 23 107 30 107
12z m97 -45 c-14 -29 -32 -69 -40 -89 -13 -30 -20 -36 -46 -36 -19 0 -31 5
-31 14 0 7 -4 13 -10 13 -18 0 -11 20 23 68 17 25 35 50 38 55 7 10 82 37 88
31 2 -2 -8 -27 -22 -56z m973 41 c21 -8 81 -83 98 -121 7 -15 -32 -43 -59 -44
-25 0 -29 6 -50 68 -12 38 -28 73 -36 79 -7 7 -13 18 -13 25 0 13 7 13 60 -7z
m173 -10 c35 -19 13 -72 -35 -83 -25 -6 -30 -2 -54 45 -19 38 -23 54 -14 59
13 8 70 -4 103 -21z m-173 -219 c0 -5 -5 -10 -11 -10 -5 0 -7 5 -4 10 3 6 8
10 11 10 2 0 4 -4 4 -10z m-1055 -10 c3 -5 1 -10 -4 -10 -6 0 -11 5 -11 10 0
6 2 10 4 10 3 0 8 -4 11 -10z m1115 0 c0 -5 -5 -10 -11 -10 -5 0 -7 5 -4 10 3
6 8 10 11 10 2 0 4 -4 4 -10z m-1000 -40 c0 -5 -4 -10 -9 -10 -6 0 -13 5 -16
10 -3 6 1 10 9 10 9 0 16 -4 16 -10z m60 -11 c0 -5 -7 -9 -15 -9 -15 0 -20 12
-9 23 8 8 24 -1 24 -14z m780 0 c0 -5 -7 -9 -15 -9 -15 0 -20 12 -9 23 8 8 24
-1 24 -14z m55 11 c-3 -5 -10 -10 -16 -10 -5 0 -9 5 -9 10 0 6 7 10 16 10 8 0
12 -4 9 -10z m-780 -20 c-3 -5 -13 -10 -21 -10 -8 0 -12 5 -9 10 3 6 13 10 21
10 8 0 12 -4 9 -10z m665 0 c0 -5 -4 -10 -9 -10 -6 0 -13 5 -16 10 -3 6 1 10
9 10 9 0 16 -4 16 -10z m-860 -10 c0 -5 -5 -10 -11 -10 -5 0 -7 5 -4 10 3 6 8
10 11 10 2 0 4 -4 4 -10z m100 -40 c0 -5 -5 -10 -11 -10 -5 0 -7 5 -4 10 3 6
8 10 11 10 2 0 4 -4 4 -10z m840 0 c0 -5 -5 -10 -11 -10 -5 0 -7 5 -4 10 3 6
8 10 11 10 2 0 4 -4 4 -10z"/>
<path d="M1782 2069 c-25 -66 -49 -150 -41 -142 11 11 59 156 54 162 -2 2 -8
-7 -13 -20z"/>
<path d="M1389 2023 c18 -59 47 -123 56 -123 3 0 -3 17 -13 38 -11 20 -25 61
-32 90 -6 28 -16 52 -20 52 -5 0 0 -26 9 -57z"/>
</g>
</svg>
